PathFileType	4	(X/Y/Z)	D:\luciana\glass.trc
DataRate	CameraRate	NumFrames	NumMarkers	Units	OrigDataRate	OrigDataStartFrame	OrigNumFrames
250.00	250.00	13	19	mm	250.00	252	2010
Frame#	Time	pelvisR			PelvisL			Trunk1			Trunk2			Trunk3			C7			shoulder			upperArm1			upperArm2			upperArm3			elbow			forearm1			forearm2			forearm3			wrist1			wrist2			wrist3			Object			Hand			
		X1	Y1	Z1	X2	Y2	Z2	X3	Y3	Z3	X4	Y4	Z4	X5	Y5	Z5	X6	Y6	Z6	X7	Y7	Z7	X8	Y8	Z8	X9	Y9	Z9	X10	Y10	Z10	X11	Y11	Z11	X12	Y12	Z12	X13	Y13	Z13	X14	Y14	Z14	X15	Y15	Z15	X16	Y16	Z16	X17	Y17	Z17	X18	Y18	Z18	X19	Y19	Z19	

251	1.004000	1734.570384	645.131767	680.104196	1399.892330	647.723913	666.336894	1613.441586	846.781373	934.037924	1642.954111	758.478224	919.026077	1552.581668	794.295490	917.172551	1574.839234	1129.313707	826.613486	1753.378749	1050.062537	778.340697	1868.679166	877.452612	732.212067	1827.840090	856.099248	795.281410	1806.392670	891.249180	680.372357	1841.991305	746.812642	691.757798	1879.552126	696.334064	629.727185	1823.364973	736.866772	601.545215	1844.346762	653.999388	689.595819	1815.997124	659.376800	492.926538	1840.876341	595.050097	534.436643	1744.912267	670.401514	511.556327	1574.727893	768.301547	247.577056	1784.903765	577.005804	433.398664	
252	1.008000	1734.583378	645.133555	680.117667	1399.941087	647.762001	666.362762	1613.488078	846.749902	934.128284	1642.990947	758.443117	919.064879	1552.606344	794.263601	917.238832	1574.933529	1129.304051	826.743245	1753.439426	1050.024509	778.410316	1868.716717	877.413929	732.273519	1827.873230	856.050909	795.342445	1806.420803	891.218185	680.435002	1841.994762	746.761680	691.797197	1879.565835	696.289241	629.760861	1823.391080	736.839175	601.581514	1844.352722	653.960049	689.619362	1816.012621	659.362674	492.959321	1840.897441	595.017970	534.455538	1744.930983	670.402765	511.574805	1574.695587	768.303454	247.593209	1784.953594	576.996684	433.418781	
253	1.012000	1734.596372	645.143330	680.162668	1399.909735	647.775233	666.390121	1613.544583	846.723557	934.225440	1642.999649	758.408010	919.117749	1552.626967	794.227779	917.302608	1575.013399	1129.289985	826.880395	1753.495216	1049.990416	778.483450	1868.750453	877.370179	732.325435	1827.896118	855.997682	795.392275	1806.439161	891.169608	680.470228	1842.011452	746.730030	691.838980	1879.568815	696.254849	629.791379	1823.405027	736.811459	601.624608	1844.359875	653.923512	689.645827	1816.037893	659.345031	492.987722	1840.919495	595.000625	534.483552	1744.959354	670.399666	511.599779	1574.689388	768.311024	247.584313	1784.975052	577.005386	433.443129	
254	1.016000	1734.605908	645.138800	680.181146	1399.954200	647.773087	666.431189	1613.577843	846.665621	934.296608	1642.998576	758.374929	919.179916	1552.653790	794.202387	917.369783	1575.096130	1129.275918	827.010632	1753.556013	1049.950242	778.561950	1868.780494	877.323568	732.377529	1827.928662	855.949223	795.431912	1806.459427	891.126335	680.508494	1842.019796	746.681690	691.879570	1879.583597	696.220636	629.805982	1823.431373	736.791492	601.659596	1844.370008	653.881073	689.681888	1816.060781	659.334779	493.015826	1840.917110	594.978213	534.516692	1744.984746	670.391679	511.629760	1574.705839	768.319726	247.588530	1784.983158	576.998353	433.475077	
255	1.020000	1734.606504	645.131588	680.207729	1399.949551	647.802114	666.429996	1613.611341	846.626878	934.359252	1643.018603	758.341908	919.224024	1552.666783	794.177055	917.426467	1575.182915	1129.257560	827.120662	1753.626585	1049.905896	778.631806	1868.813634	877.275944	732.421935	1827.965856	855.903864	795.493662	1806.494594	891.080379	680.577457	1842.057228	746.639252	691.926837	1879.602909	696.195722	629.841566	1823.441982	736.770153	601.697743	1844.368815	653.841972	689.707637	1816.076756	659.325898	493.045986	1840.904117	594.954312	534.539223	1745.003462	670.392215	511.661649	1574.699998	768.316031	247.597843	1785.007715	577.003956	433.503568	
256	1.024000	1734.609604	645.117402	680.222750	1399.978876	647.794604	666.419268	1613.631010	846.584380	934.431672	1643.031836	758.310735	919.274390	1552.677631	794.136763	917.468309	1575.270176	1129.243016	827.237368	1753.682613	1049.875975	778.708100	1868.850112	877.228916	732.478201	1827.994466	855.861068	795.553207	1806.510568	891.053855	680.634677	1842.069268	746.607423	691.968083	1879.607201	696.174681	629.896998	1823.457599	736.743987	601.738393	1844.374061	653.802991	689.737976	1816.099048	659.320891	493.081570	1840.885639	594.936609	534.549773	1745.012999	670.388341	511.693060	1574.697018	768.307388	247.587562	1785.022378	577.000618	433.514714	
257	1.028000	1734.613538	645.125270	680.241764	1399.924755	647.809029	666.426420	1613.643646	846.528530	934.495091	1643.048406	758.290291	919.321299	1552.686810	794.097185	917.513549	1575.360656	1129.226327	827.354848	1753.737688	1049.831390	778.791904	1868.879557	877.188087	732.546806	1828.845501	856.428504	795.912862	1806.542039	891.017795	680.689931	1842.075706	746.577561	692.007780	1879.598022	696.134627	629.928887	1823.469996	736.718655	601.781011	1844.376326	653.761744	689.774632	1816.107035	659.311771	493.113637	1840.904474	594.921470	534.575880	1745.034814	670.391798	511.727810	1574.705124	768.312991	247.588083	1785.032392	576.994300	433.544546	
258	1.032000	1734.615445	645.123601	680.263937	1399.845481	647.844017	666.430354	1613.692999	846.500933	934.581876	1643.071771	758.254051	919.375598	1552.703857	794.078469	917.559385	1575.478554	1129.204154	827.450752	1753.798962	1049.787164	778.861761	1868.914723	877.150118	732.602119	1829.901576	857.141912	796.332121	1806.576014	890.983939	680.754244	1842.097402	746.552706	692.033768	1879.618526	696.092486	629.954040	1823.477507	736.693740	601.820886	1844.380617	653.720617	689.817786	1816.119909	659.296930	493.144184	1840.923786	594.895601	534.614801	1745.053768	670.392513	511.755705	1574.698687	768.311858	247.572348	1785.033822	576.988816	433.587044	
259	1.036000	1734.613180	645.119965	680.268228	1399.877071	647.842586	666.447163	1613.724351	846.473992	934.627533	1643.072605	758.220494	919.412732	1552.723289	794.066489	917.606235	1575.585127	1129.180312	827.543497	1753.852010	1049.753428	778.926849	1868.945837	877.107263	732.652605	1828.535438	856.061816	795.883834	1806.609511	890.954554	680.805564	1842.100620	746.518493	692.076921	1879.617453	696.071744	630.002916	1823.492169	736.676574	601.864457	1844.383955	653.678358	689.844549	1816.148639	659.286022	493.180186	1840.918183	594.878256	534.643412	1745.059490	670.382321	511.777163	1574.697852	768.308640	247.582883	1785.047054	576.992869	433.608145	
260	1.040000	1734.610438	645.125508	680.292547	1399.847031	647.850335	666.453958	1613.763452	846.458197	934.665501	1643.064499	758.174419	919.446468	1552.739263	794.051409	917.650759	1575.673103	1129.169703	827.654183	1753.911495	1049.716711	779.001176	1868.965149	877.056122	732.712328	1828.209758	855.766892	795.798123	1806.635261	890.913844	680.862367	1842.112541	746.476114	692.134500	1879.627943	696.058750	630.053699	1823.507428	736.647427	601.906240	1844.387412	653.641999	689.873099	1816.163898	659.275353	493.216872	1840.917826	594.873190	534.677148	1745.062113	670.376897	511.806548	1574.760199	768.319845	247.621462	1785.039067	576.978028	433.623552	
261	1.044000	1734.606266	645.125508	680.312753	1399.872184	647.822976	666.454971	1613.759398	846.417487	934.711456	1643.097758	758.151889	919.501424	1552.757859	794.040263	917.700350	1575.762510	1129.158735	827.756047	1753.981233	1049.693108	779.085815	1868.992567	877.012372	732.773781	1828.161955	855.665028	795.825124	1806.666255	890.877247	680.939853	1842.128634	746.437669	692.184985	1879.635572	696.027696	630.094647	1823.513985	736.622870	601.946950	1844.382286	653.606296	689.911008	1816.170931	659.277856	493.245512	1840.896130	594.867349	534.706950	1745.074987	670.374036	511.837244	1574.908137	768.364370	247.702196	1785.032868	576.965868	433.646113	
262	1.048000	1734.599113	645.120978	680.326283	1399.864197	647.825718	666.465461	1613.754034	846.378207	934.763908	1643.108964	758.133113	919.537842	1552.777767	794.022918	917.741776	1575.842500	1129.153848	827.852666	1754.041314	1049.662352	779.163182	1869.025946	876.968026	732.842982	1828.169584	855.616689	795.886874	1806.700706	890.847027	681.005120	1842.136741	746.393383	692.245781	1879.644156	695.994139	630.134463	1823.531866	736.611485	601.985037	1844.372153	653.574467	689.955711	1816.185117	659.274578	493.273497	1840.882659	594.844699	534.744442	1745.087504	670.382738	511.876643	1574.879527	768.364489	247.687533	1785.047650	576.970518	433.664769	
263	1.052000	1734.587073	645.121574	680.355608	1399.902105	647.823215	666.451335	1613.790154	846.343756	934.824944	1643.125772	758.104444	919.577777	1552.798986	793.998182	917.783499	1575.938702	1129.140377	827.947915	1754.099131	1049.632549	779.239953	1869.072318	876.930892	732.897997	1828.186631	855.571628	795.950592	1806.731462	890.824258	681.059659	1842.147708	746.359706	692.294121	1879.650712	695.952713	630.189180	1823.551655	736.591280	602.031648	1844.373226	653.545082	689.999461	1816.198707	659.270167	493.306845	1840.896487	594.822526	534.776092	1745.098829	670.383632	511.912763	1574.745059	768.338144	247.602344	1785.045981	576.970160	433.696061	
